<?xml version="1.0" encoding="UTF-8" standalone="no"?><!DOCTYPE svg PUBLIC "-//W3C//DTD SVG 1.1//EN" "http://www.w3.org/Graphics/SVG/1.1/DTD/svg11.dtd"><svg width="100%" height="100%" viewBox="0 0 2174 834" version="1.1" xmlns="http://www.w3.org/2000/svg" xmlns:xlink="http://www.w3.org/1999/xlink" xml:space="preserve" xmlns:serif="http://www.serif.com/" style="fill-rule:evenodd;clip-rule:evenodd;stroke-linejoin:round;stroke-miterlimit:2;"><g><path d="M1111.06,772.771c-42.034,-253.517 -188.471,-191.138 -188.471,-191.138l-4.121,-531.483c-0,0 111.437,-38.275 193.808,219.354l-1.216,503.267Z" style="fill:#1a1a1a;fill-rule:nonzero;"/><path d="M1111.06,775.308c-12.113,-312.012 -96.901,-292.625 -96.901,-292.625l-9.925,-482.683c0,0 95.438,49.175 109,242.242l-2.175,533.066Z" style="fill:#989898;fill-rule:nonzero;"/><path d="M264.896,386.504c-0,37.55 -11.267,65.488 -33.792,83.821c-22.537,18.329 -54.833,27.533 -96.904,27.617l-49.421,-0l0,160.487l-84.779,0l-0,-383.121l133.229,0c34.217,-1.854 68.054,7.875 96.054,27.625c23.821,18.325 35.688,46.184 35.613,83.571Zm-84.788,11.146c1.296,-15.713 -4.258,-31.221 -15.262,-42.513c-12.096,-9.916 -27.513,-14.891 -43.121,-13.929l-36.338,0l0,114.338l39.121,-0c15.863,1.412 31.546,-4.313 42.759,-15.629c9.291,-12.042 13.866,-27.075 12.841,-42.267Z" style="fill:#1a1a1a;fill-rule:nonzero;"/><path d="M554.742,658.425l-76.425,-0l-0,-30.642l-31.617,17.921c-8.742,5.113 -18.046,9.175 -27.733,12.117c-10.142,2.779 -20.621,4.162 -31.134,4.112c-23.316,1.304 -46.054,-7.525 -62.375,-24.221c-15.72,-17.875 -23.891,-41.141 -22.779,-64.92l0,-181.688l76.434,0l-0,164.371c-0.096,9.637 3.662,18.917 10.416,25.8c8.617,8.121 20.279,12.213 32.092,11.263c12.1,0.341 24.037,-2.684 34.529,-8.725c7.954,-4.459 15.383,-9.775 22.163,-15.875l-0,-176.834l76.425,0l-0,267.321l0.004,0Z" style="fill:#1a1a1a;fill-rule:nonzero;"/><path d="M880.938,519.013c1.154,37.674 -12.338,74.329 -37.68,102.237c-24.095,26.854 -58.766,41.813 -94.841,40.933c-14.071,-0.07 -28.084,-1.983 -41.671,-5.695c-11.1,-2.425 -21.65,-6.905 -31.133,-13.2l-42.867,18.895l-18.296,-9.808l0,-377.067l74.863,0l-0,127.909l28.82,-13.804c6.192,-2.896 12.538,-5.45 19.017,-7.634c7.592,-2.425 15.521,-3.612 23.504,-3.512c34.1,-1.596 66.921,13.216 88.296,39.854c22.108,28.862 33.421,64.562 31.988,100.892Zm-77.288,4.845c0.487,-20.741 -5.892,-41.05 -18.171,-57.77c-10.491,-15.271 -27.871,-24.35 -46.387,-24.225c-10.642,-0.121 -21.217,1.812 -31.134,5.687c-7.579,2.596 -14.075,7.675 -18.404,14.425l0,127.171c5.442,5.304 12.083,9.208 19.375,11.383c9.404,3.117 19.279,4.633 29.196,4.483c24.217,0 40.45,-6.424 50.621,-19.379c11.604,-18.404 16.925,-40.087 15.137,-61.775l-0.233,0Z" style="fill:#1a1a1a;fill-rule:nonzero;"/><path d="M1881.88,535.729l-198.275,0c2.275,18.363 11.45,35.167 25.671,46.992c13.763,9.804 30.359,14.825 47.242,14.291c16.671,-0.179 33.25,-2.333 49.421,-6.412c15.087,-3.125 29.525,-8.863 42.633,-16.954l0,67.342c-13.438,8.429 -28.433,14.075 -44.092,16.587c-15.583,3.579 -31.495,5.613 -47.479,6.058c-47.362,0 -84.187,-12.837 -110.829,-38.633c-27.233,-27.504 -41.696,-65.154 -39.854,-103.808c-1.65,-39.359 13.087,-77.638 40.708,-105.746c26.988,-26.733 63.75,-41.267 101.734,-40.204c37.216,-1.438 73.004,14.437 96.904,43c24.391,28.583 36.466,67.741 36.216,117.487Zm-70.366,-36.333c-2.325,-17.25 -10.388,-33.209 -22.888,-45.308c-11.783,-10.275 -27.008,-15.726 -42.629,-15.255c-16.646,-1.221 -32.992,4.834 -44.817,16.584c-10.666,12.316 -17.07,27.733 -18.308,43.979l128.642,-0Z" style="fill:#1a1a1a;fill-rule:nonzero;"/><path d="M2173.79,658.425l-58.255,-0l-15.87,-24.221l-40.209,21.567c-4.583,2.171 -9.487,3.529 -14.533,3.987c-5.446,0.9 -10.954,1.388 -16.471,1.459c-34.538,2.141 -67.946,-12.684 -89.508,-39.73c-21.113,-28.758 -31.955,-63.787 -30.771,-99.441c-2.254,-37.917 10.841,-75.154 36.346,-103.325c25.75,-26.021 61.283,-39.963 97.858,-38.388c10.321,-0.108 20.629,0.825 30.771,2.792c8.929,1.842 17.521,5.121 25.437,9.679l0,-117.729l74.85,0l0.354,383.35Zm-74.849,-82.6l-0,-118.467c-5.705,-5.962 -12.771,-10.445 -20.588,-13.079c-10,-3.716 -20.592,-5.558 -31.246,-5.45c-17.516,-1.35 -34.679,5.438 -46.512,18.413c-11.588,17.104 -16.971,37.658 -15.259,58.254c-1.579,21.442 4.142,42.779 16.234,60.562c10.641,13.292 26.933,20.755 43.958,20.1c10.775,0.28 21.475,-1.779 31.363,-6.058c8.166,-3.371 15.633,-8.221 22.05,-14.275Z" style="fill:#1a1a1a;fill-rule:nonzero;"/><path d="M1111.06,288.279l-0.001,484.492c72.68,-302.813 460.271,60.562 460.271,60.562l0,-520.829c0,0 -387.591,-327.037 -460.271,-24.225Z" style="fill:#1a1a1a;fill-rule:nonzero;"/><path d="M1454.08,622.333l-36.337,-181.691l-66.134,156.496l-33.429,-0l-59.716,-149.346l-36.338,175.029l-70.242,-0l72.679,-326.071l27.846,0l86.488,192.471l87.083,-192.954l30.163,-0l72.675,326.066l-74.738,0Z" style="fill:#fff;fill-rule:nonzero;"/></g></svg>